# xmcd
# Track frame offsets:
# 150
# 13891
# 27486
# 46334
# 61076
# 76168
# 84958
# 96436
# 115614
# 129839
# 141600
# 154065
# 171040
# 184636
# 195161
# 212005
# 225367
# 237859
# 255304
# 268749
# 282056
# 290073
# 304205
# 316589
# 330656
# 346738
#
# Disc length: 4657 seconds
# Revision: 0
# Processed by: cddbd v1.5.2PL0 Copyright (c) Steve Scherf et al.
# Submitted via: VisiTrax 2.10.3.257 - For more info visit www.synapsa.com
#
DISCID=59122f1a
DTITLE=Johnny Cash - Under Ground (Only 500 Copies)
DYEAR=2005
DGENRE=Country
TTITLE0=Folsom Prison Blues
TTITLE1=Get Rythm
TTITLE2=Sunday Morning Comin' Down
TTITLE3=Ghost Riders In The Sky
TTITLE4=Cowboy's Prayer
TTITLE5=Oh Bury Me Not
TTITLE6=Big River
TTITLE7=I Walk The Line
TTITLE8=I Still Miss Someone
TTITLE9=Man In Black
TTITLE10=The Alamo
TTITLE11=Orange Blossom Special
TTITLE12=Death And Hell
TTITLE13=Delia's Gone
TTITLE14=Bird On A Wire
TTITLE15=The Beast In Me
TTITLE16=Tennessee Stud
TTITLE17=Down There By The Train
TTITLE18=Drive On
TTITLE19=Ring Of Fire
TTITLE20=I Don't Like It
TTITLE21=The Ballad Of Ira Hayes
TTITLE22=Home Of The Blues
TTITLE23=Long Black Veil
TTITLE24=A Boy Named Sue
TTITLE25=Outro
EXTD=
EXTT0=
EXTT1=
EXTT2=
EXTT3=
EXTT4=
EXTT5=
EXTT6=
EXTT7=
EXTT8=
EXTT9=
EXTT10=
EXTT11=
EXTT12=
EXTT13=
EXTT14=
EXTT15=
EXTT16=
EXTT17=
EXTT18=
EXTT19=
EXTT20=
EXTT21=
EXTT22=
EXTT23=
EXTT24=
EXTT25=
PLAYORDER=
